<svg width="52" height="50" viewBox="0 0 52 50" fill="none" xmlns="http://www.w3.org/2000/svg">
<g id="arcticons:magnetometer">
<path id="Vector" d="M19.0498 9.93029L24.5625 15.3501M35.5868 26.1886L41.0995 31.6084M28.8356 11.149L16.2484 23.523C14.8043 24.964 13.9982 26.908 14.0059 28.9309C14.0136 30.9539 14.8344 32.8918 16.2895 34.3222C17.7445 35.7526 19.7158 36.5594 21.7734 36.5668C23.831 36.5742 25.8082 35.7815 27.2738 34.3615L39.861 21.9876L45.3726 27.4074L32.7855 39.7813C29.8495 42.5979 25.9028 44.1634 21.8007 44.1387C17.6987 44.1139 13.7718 42.5009 10.8712 39.6491C7.9706 36.7974 6.3299 32.9367 6.30474 28.9038C6.27957 24.8709 7.87195 20.9908 10.7368 18.1042L23.3239 5.72925L28.8356 11.149Z" stroke="#664229" stroke-linecap="round" stroke-linejoin="round"/>
</g>
</svg>
