<svg width="166" height="166" viewBox="0 0 166 166" fill="none" xmlns="http://www.w3.org/2000/svg">
<g id="cryptocurrency:chat" clip-path="url(#clip0_0_111)">
<rect width="166" height="166" fill="white"/>
<path id="Vector" fill-rule="evenodd" clip-rule="evenodd" d="M83 166C37.1581 166 0 128.842 0 83C0 37.1581 37.1581 0 83 0C128.842 0 166 37.1581 166 83C166 128.842 128.842 166 83 166ZM84.4525 120.998C89.7853 124.687 96.5498 126.881 103.875 126.881C105.695 126.881 107.495 126.746 109.264 126.482C109.871 126.731 110.457 127.037 111.178 127.452C112.735 128.365 114.815 129.765 117.404 131.654C119.525 133.205 122.529 131.705 122.529 129.096V121.517C123.618 120.812 124.645 120.049 125.615 119.224C131.477 114.255 134.875 107.459 134.875 100.171C134.875 95.3722 133.423 90.885 130.87 87.0099C130.066 89.7617 128.976 92.4218 127.618 94.9468C128.157 96.6224 128.443 98.3706 128.443 100.171C128.443 105.535 125.911 110.598 121.429 114.395C120.273 115.372 119.027 116.238 117.71 116.983C117.221 117.259 116.815 117.659 116.532 118.143C116.248 118.627 116.098 119.177 116.096 119.738V122.975C113.02 121.004 110.909 120.075 109.301 120.075C109.12 120.076 108.939 120.091 108.761 120.122C104.254 120.875 99.6338 120.574 95.2633 119.24C91.7234 120.159 88.1062 120.75 84.4577 121.004L84.4525 120.998ZM45.7226 105.841C47.4332 107.288 49.2429 108.614 51.1384 109.809V122.736C51.1384 126.004 54.8993 127.872 57.5501 125.932C64.8645 120.589 69.9482 117.57 71.2192 117.269C74.1553 117.736 77.1537 117.969 80.1832 117.969C107.158 117.969 129.247 99.2576 129.247 75.8464C129.247 52.4301 107.153 33.7188 80.1832 33.7188C53.2134 33.7188 31.125 52.4301 31.125 75.8412C31.125 87.3056 36.4681 97.9971 45.7226 105.841ZM71.3956 109.295C68.7862 109.295 64.9734 111.137 59.1842 115.022V107.568C59.1816 106.866 58.993 106.178 58.6376 105.573C58.2822 104.968 57.7727 104.467 57.1611 104.124C54.9629 102.88 52.8858 101.433 50.9568 99.8023C43.4194 93.4269 39.1656 84.8986 39.1656 75.8412C39.1656 57.1144 57.4049 41.666 80.1832 41.666C102.967 41.666 121.201 57.1144 121.201 75.8412C121.201 94.5681 102.967 110.022 80.1832 110.022C77.4338 110.022 74.7207 109.793 72.0699 109.347C71.847 109.311 71.6214 109.294 71.3956 109.295ZM59.2724 83.7937C62.8258 83.7937 65.7049 80.9406 65.7049 77.4338C65.7049 73.9219 62.8258 71.0739 59.2724 71.0739C55.7189 71.0739 52.8399 73.9219 52.8399 77.4338C52.8399 80.9457 55.7189 83.7937 59.2724 83.7937ZM80.1832 83.7937C83.7366 83.7937 86.6157 80.9406 86.6157 77.4338C86.6157 73.9219 83.7366 71.0739 80.1832 71.0739C76.6297 71.0739 73.7507 73.9219 73.7507 77.4338C73.7507 80.9457 76.6297 83.7937 80.1832 83.7937ZM101.094 83.7937C104.647 83.7937 107.527 80.9406 107.527 77.4338C107.527 73.9219 104.647 71.0739 101.094 71.0739C97.5406 71.0739 94.6615 73.9219 94.6615 77.4338C94.6615 80.9457 97.5406 83.7937 101.094 83.7937Z" fill="#664229"/>
</g>
<defs>
<clipPath id="clip0_0_111">
<rect width="166" height="166" fill="white"/>
</clipPath>
</defs>
</svg>
