<svg width="50" height="50" viewBox="0 0 50 50" fill="none" xmlns="http://www.w3.org/2000/svg">
<g id="fluent:drink-wine-20-regular">
<path id="Vector" d="M33.63 20.1875C33.6736 19.8654 33.5901 19.5391 33.3972 19.2775C33.2042 19.016 32.917 18.8399 32.5964 18.7866C32.2758 18.7333 31.9471 18.8069 31.6798 18.9919C31.4126 19.1769 31.228 19.4587 31.165 19.7775C30.9514 21.0595 30.3435 22.2431 29.4258 23.1634C28.5082 24.0838 27.3264 24.6952 26.045 24.9125C25.7181 24.9679 25.4266 25.1508 25.2346 25.4211C25.0426 25.6914 24.9659 26.0269 25.0212 26.3538C25.0766 26.6806 25.2596 26.9721 25.5299 27.1641C25.8001 27.3561 26.1356 27.4329 26.4625 27.3775C28.2565 27.0731 29.911 26.217 31.1956 24.9283C32.4803 23.6396 33.3312 21.9824 33.63 20.1875ZM13.75 5C13.4185 5 13.1005 5.1317 12.8661 5.36612C12.6317 5.60054 12.5 5.91848 12.5 6.25V20C12.5 23.0988 13.651 26.0872 15.7297 28.3854C17.8084 30.6835 20.6667 32.1276 23.75 32.4375V42.5H18.75C18.4185 42.5 18.1005 42.6317 17.8661 42.8661C17.6317 43.1005 17.5 43.4185 17.5 43.75C17.5 44.0815 17.6317 44.3995 17.8661 44.6339C18.1005 44.8683 18.4185 45 18.75 45H31.25C31.5815 45 31.8995 44.8683 32.1339 44.6339C32.3683 44.3995 32.5 44.0815 32.5 43.75C32.5 43.4185 32.3683 43.1005 32.1339 42.8661C31.8995 42.6317 31.5815 42.5 31.25 42.5H26.25V32.4375C29.3333 32.1276 32.1916 30.6835 34.2703 28.3854C36.349 26.0872 37.5 23.0988 37.5 20V6.25C37.5 5.91848 37.3683 5.60054 37.1339 5.36612C36.8995 5.1317 36.5815 5 36.25 5H13.75ZM15 13.75V7.5H35V13.75H15ZM15 16.25H35V20C35 22.6522 33.9464 25.1957 32.0711 27.0711C30.1957 28.9464 27.6522 30 25 30C22.3478 30 19.8043 28.9464 17.9289 27.0711C16.0536 25.1957 15 22.6522 15 20V16.25Z" fill="#664229"/>
</g>
</svg>
