<svg width="50" height="50" viewBox="0 0 50 50" fill="none" xmlns="http://www.w3.org/2000/svg">
<g id="ic:round-house-siding">
<path id="Vector" d="M39.5834 25H43.125C44.0834 25 44.5417 23.8125 43.8125 23.1875L26.3959 7.5C25.6042 6.79167 24.3959 6.79167 23.6042 7.5L6.18752 23.1875C5.47919 23.8125 5.91669 25 6.87502 25H10.4167V39.5833C10.4167 40.7292 11.3542 41.6667 12.5 41.6667C13.6459 41.6667 14.5834 40.7292 14.5834 39.5833V37.5H35.4167V39.5833C35.4167 40.7292 36.3542 41.6667 37.5 41.6667C38.6459 41.6667 39.5834 40.7292 39.5834 39.5833V25ZM15.0209 20.8333H34.9792L35.4167 21.2292V25H14.5834V21.2292L15.0209 20.8333ZM30.3542 16.6667H19.6459L25 11.8542L30.3542 16.6667ZM14.5834 33.3333V29.1667H35.4167V33.3333H14.5834Z" fill="#664229"/>
</g>
</svg>
