<svg width="28" height="24" viewBox="0 0 28 24" fill="none" xmlns="http://www.w3.org/2000/svg">
<g id="ic:round-search">
<path id="Vector" d="M17.968 14H17.0541L16.7302 13.73C17.4531 13.0039 17.9815 12.1487 18.2775 11.2256C18.5734 10.3024 18.6297 9.33413 18.4422 8.38998C17.8986 5.60998 15.2149 3.38997 11.976 3.04997C10.8373 2.92544 9.68071 3.02775 8.59479 3.34906C7.50887 3.67038 6.52237 4.20219 5.71077 4.90381C4.89918 5.60542 4.284 6.45824 3.91231 7.397C3.54063 8.33576 3.42228 9.33559 3.56634 10.32C3.95964 13.12 6.52764 15.44 9.74342 15.91C10.8356 16.072 11.9557 16.0234 13.0235 15.7675C14.0914 15.5117 15.0807 15.0549 15.9205 14.43L16.2328 14.71V15.5L21.149 19.75C21.6233 20.16 22.3983 20.16 22.8726 19.75C23.3469 19.34 23.3469 18.67 22.8726 18.26L17.968 14ZM11.0274 14C8.1471 14 5.82201 11.99 5.82201 9.49997C5.82201 7.00997 8.1471 4.99997 11.0274 4.99997C13.9077 4.99997 16.2328 7.00997 16.2328 9.49997C16.2328 11.99 13.9077 14 11.0274 14Z" fill="#664229"/>
</g>
</svg>
