<svg width="50" height="50" viewBox="0 0 50 50" fill="none" xmlns="http://www.w3.org/2000/svg">
<g id="map:political">
<path id="Vector" d="M12.333 22H15V38H19V24H23V38H27V24H31V38H35V22H37.666C38.402 22 39 21.264 39 20.601C39 20.2 38.779 19.748 38.445 19.53L38.447 19.478L38.426 19.441L38.56 19.408L26 12.939V11.047C28 12.106 29.951 10.282 33 11.379V7.2C29.949 6.104 28 7.927 26 6.868V6.6C26 6.269 25.369 6 25 6C24.631 6 24 6.269 24 6.6V12.939L11.441 19.395L11.712 19.416L12 19.427V19.429C11 19.647 11.224 20.199 11.224 20.6C11.223 21.264 11.597 22 12.333 22ZM14 39L11 42H39L36 39H14ZM36 23V38H36.885L37.276 38.553L39.942 41.052L40.885 42H49V23H36ZM42 35H39V32H42V35ZM42 29H39V26H42V29ZM46 35H44V32H46V35ZM46 29H44V26H46V29ZM13.114 38H14V23H1V42H9.114L10.056 41.152L12.723 38.552L13.114 38ZM6 35H4V32H6V35ZM6 29H4V26H6V29ZM11 35H8V32H11V35ZM11 29H8V26H11V29Z" fill="#664229"/>
</g>
</svg>
