<svg width="50" height="50" viewBox="0 0 50 50" fill="none" xmlns="http://www.w3.org/2000/svg">
<g id="material-symbols:crib-outline">
<path id="Vector" d="M12.5 29.1666H37.5V22.9166H20.8333V12.4999H16.6667C15.5208 12.4999 14.5403 12.9083 13.725 13.7249C12.9083 14.5402 12.5 15.5208 12.5 16.6666V29.1666ZM25 41.6666C25.6945 41.6666 26.3889 41.6235 27.0833 41.5374C27.7778 41.4499 28.4722 41.3194 29.1667 41.1458V33.3333H20.8333V41.1458C21.5278 41.3194 22.2222 41.4499 22.9167 41.5374C23.6111 41.6235 24.3056 41.6666 25 41.6666ZM25 45.8333C22.2222 45.8333 19.566 45.3041 17.0313 44.2458C14.4965 43.186 12.2396 41.6839 10.2604 39.7395L13.2292 36.7708C13.75 37.2916 14.2972 37.7687 14.8708 38.202C15.4431 38.6367 16.0417 39.0451 16.6667 39.427V33.3333H12.5C11.3542 33.3333 10.3736 32.9249 9.55834 32.1082C8.74168 31.293 8.33334 30.3124 8.33334 29.1666V16.6666C8.33334 14.3749 9.14932 12.4131 10.7813 10.7812C12.4132 9.14922 14.375 8.33325 16.6667 8.33325H25V18.7499H37.5C38.6458 18.7499 39.6271 19.1576 40.4438 19.9728C41.259 20.7895 41.6667 21.7708 41.6667 22.9166V29.1666C41.6667 30.3124 41.259 31.293 40.4438 32.1082C39.6271 32.9249 38.6458 33.3333 37.5 33.3333H33.3333V39.427C33.9583 39.0451 34.5576 38.6367 35.1313 38.202C35.7035 37.7687 36.25 37.2916 36.7708 36.7708L39.7396 39.7395C37.7604 41.6839 35.5035 43.186 32.9688 44.2458C30.434 45.3041 27.7778 45.8333 25 45.8333Z" fill="#664229"/>
</g>
</svg>
