<svg width="50" height="50" viewBox="0 0 50 50" fill="none" xmlns="http://www.w3.org/2000/svg">
<g id="mdi:weed">
<path id="Vector" d="M23.9585 45.8334V36.1459C22.9168 37.7709 20.8335 39.7709 16.7293 41.2709C16.7293 41.2709 17.771 37.7084 20.7085 35.3126C18.0002 35.8959 13.9168 35.8126 8.3335 33.3334C8.3335 33.3334 13.4793 30.3959 19.3335 31.1876C16.021 29.1667 11.8752 25.1667 8.68766 16.8959C8.68766 16.8959 18.0627 19.4584 22.7293 27.3751C18.5002 17.1667 25.0002 4.16675 25.0002 4.16675C30.0627 15.5626 28.9793 23.1251 27.3335 27.2917C32.021 19.4376 41.3127 16.8959 41.3127 16.8959C38.1252 25.1667 33.9793 29.1667 30.6668 31.1876C36.521 30.3959 41.6668 33.3334 41.6668 33.3334C36.0835 35.8126 32.0002 35.8959 29.2918 35.3126C32.2293 37.7084 33.271 41.2709 33.271 41.2709C29.1668 39.7709 27.0835 37.7709 26.0418 36.1459V45.8334H23.9585Z" fill="#664229"/>
</g>
</svg>
