<svg width="166" height="166" viewBox="0 0 166 166" fill="none" xmlns="http://www.w3.org/2000/svg">
<g id="noto-v1:fireworks" clip-path="url(#clip0_0_75)">
<path id="Vector" d="M84.9323 72.651C85.1009 73.066 85.5159 74.1813 85.905 74.4147C86.3718 74.713 87.9799 73.9608 88.4468 73.7144C89.9312 72.9563 91.1384 71.7491 91.8965 70.2647C93.3879 67.3208 91.5464 63.6507 88.0059 64.0527C84.1282 64.4936 83.817 69.8497 84.9323 72.651ZM75.089 84.6989C75.4392 84.4007 76.3859 83.6744 76.4896 83.2335C76.6323 82.6888 75.4262 81.3919 75.0631 81.0158C73.8959 79.8357 72.3785 79.0186 70.7445 78.7593C67.4893 78.2146 64.5325 81.0807 65.985 84.3488C67.5671 87.9022 72.7676 86.5794 75.089 84.6989ZM90.2106 90.8721C89.7696 90.7554 88.6154 90.4441 88.2134 90.6257C87.6946 90.8461 87.3834 92.5839 87.2926 93.0897C87.0592 94.7368 87.3315 96.4357 88.1096 97.9011C89.64 100.819 93.6992 101.455 95.424 98.3291C97.3175 94.9313 93.1285 91.5724 90.2106 90.8721ZM76.5285 68.3324C77.0732 68.8382 77.6309 69.4218 78.2404 69.8757C78.5906 70.135 79.3687 70.3425 79.7189 69.9924C80.2506 69.4607 80.4192 68.0471 80.5748 67.3597C81.314 64.2083 81.716 60.9272 81.1714 57.711L81.1454 57.6072C80.3154 52.5754 73.3253 51.3174 71.2503 56.2455L71.1076 56.6346C70.135 59.6174 71.2762 62.7429 73.2734 64.9864C74.3109 66.1536 75.3873 67.256 76.5285 68.3324ZM64.1045 74.9983C65.6348 75.2577 67.1781 75.4393 68.7214 75.5689C69.4736 75.6338 70.2646 75.7375 71.0298 75.7116C71.4448 75.6986 72.197 75.3615 72.2618 74.8816C72.3396 74.1294 71.5875 72.9233 71.2762 72.2879C69.8885 69.3569 68.1507 66.5427 65.7256 64.3769L65.6478 64.2991C61.8479 60.9013 55.61 64.2861 57.0625 69.4347L57.2051 69.8238C58.2815 72.7547 61.1217 74.4796 64.1045 74.9983ZM55.3117 91.9744C50.5003 93.6604 50.4743 100.767 55.6878 101.96L56.1028 102.025C59.2023 102.479 62.0814 100.806 63.9618 98.4458C64.9215 97.2268 65.8293 95.9688 66.6853 94.6719C67.1003 94.0364 67.5671 93.401 67.9043 92.7266C68.0989 92.3375 68.1637 91.5335 67.7617 91.2482C67.1392 90.8072 65.7256 90.898 65.0123 90.8591C61.7831 90.6905 58.476 90.8591 55.4154 91.9355L55.3117 91.9744ZM86.5015 116.382C88.4598 113.931 88.4728 110.611 87.3834 107.783C86.8207 106.338 86.1933 104.919 85.5029 103.53C85.1657 102.855 84.8415 102.129 84.4395 101.481C84.206 101.13 83.5446 100.663 83.0907 100.858C82.4034 101.169 81.755 102.427 81.3659 103.037C79.5762 105.734 78.0589 108.678 77.4364 111.856L77.4104 111.972C76.4507 116.978 82.5461 120.583 86.2162 116.693L86.5015 116.382ZM105.449 99.3796L105.54 99.4444C110.001 101.908 115.331 97.2397 112.763 92.5321L112.543 92.1819C110.818 89.5622 107.667 88.5118 104.658 88.6674C103.102 88.7452 101.558 88.9138 100.028 89.1472C99.2887 89.251 98.4846 89.3288 97.7584 89.5233C97.3434 89.6271 96.695 90.1199 96.7468 90.5997C96.8246 91.3519 97.8362 92.3505 98.2771 92.9211C100.287 95.45 102.609 97.8104 105.449 99.3796ZM97.2007 75.7116C97.927 75.945 99.2498 75.4263 99.9371 75.2447C103.076 74.4407 106.162 73.2605 108.756 71.3022L108.847 71.2374C112.906 68.1508 110.779 61.3811 105.449 61.835L105.034 61.8999C101.947 62.4057 99.7037 64.8697 98.6273 67.6969C98.0833 69.1494 97.603 70.6249 97.1878 72.1193C96.9932 72.8455 96.7339 73.5977 96.6171 74.3499C96.5523 74.7779 96.7339 75.556 97.2007 75.7116Z" fill="#ED6C30"/>
<path id="Vector_2" d="M25.4446 113.412L25.8466 113.541C29.1018 114.41 32.9146 112.582 35.651 111C38.1799 109.534 40.6699 107.952 42.9395 106.084C43.8213 105.345 44.7551 104.658 45.4813 103.763C46.1298 102.946 46.5966 101.364 45.2479 100.923C43.3545 100.326 41.1627 100.638 39.2174 100.728C34.8599 100.936 30.1393 101.104 26.119 102.998C24.7184 103.659 23.5252 104.632 22.6823 106.097C21.126 108.782 22.4488 112.348 25.4446 113.412ZM93.0118 148.103L93.2452 147.753C94.9571 144.861 94.2049 140.685 93.4009 137.624C92.6487 134.797 91.7927 131.97 90.5866 129.298C90.1068 128.261 89.7048 127.172 89.0304 126.238C88.4079 125.395 87.0073 124.513 86.2291 125.693C85.1398 127.353 84.8674 129.558 84.4395 131.451C83.4798 135.705 82.3904 140.296 83.1296 144.666C83.402 146.184 84.0245 147.61 85.2046 148.803C87.4093 151.047 91.1962 150.723 93.0118 148.103ZM140.802 112.18C143.746 111.103 145.016 107.524 143.395 104.801L143.175 104.437C141.243 101.675 137.144 100.625 134.019 100.093C131.14 99.6 128.209 99.211 125.278 99.198C124.137 99.198 122.97 99.1202 121.841 99.3407C120.817 99.5482 119.442 100.469 120.194 101.662C121.245 103.348 123.138 104.502 124.681 105.682C128.157 108.328 131.879 111.22 136.172 112.361C137.663 112.737 139.206 112.776 140.802 112.18ZM118.547 44.405C116.887 46.8172 115.318 49.3202 114.073 51.9658C113.593 53.0033 113.036 54.0278 112.763 55.1561C112.53 56.1807 112.776 57.8018 114.19 57.6332C116.161 57.3738 118.003 56.1418 119.714 55.2339C123.566 53.1849 127.755 51.0061 130.582 47.5824C131.555 46.3892 132.229 45.0016 132.359 43.3027C132.618 40.1772 129.895 37.5186 126.731 37.8558L126.316 37.9077C123.009 38.5043 120.337 41.7983 118.547 44.405ZM31.527 67.1911C34.393 67.7877 37.2981 68.2935 40.229 68.4102C41.3702 68.4491 42.5374 68.5788 43.6657 68.3972C44.7032 68.2286 46.1168 67.3727 45.4035 66.1277C44.4179 64.4158 42.5634 63.1838 41.072 61.9388C37.6871 59.1764 34.0818 56.1288 29.828 54.8578C28.3496 54.4039 26.8193 54.3132 25.2112 54.8319C22.2284 55.7916 20.8148 59.3191 22.3321 62.1203L22.5526 62.4964C24.3682 65.3236 28.4274 66.5427 31.527 67.1911ZM53.0421 27.2085L52.9513 27.6235C52.3937 30.9435 54.5854 34.5618 56.427 37.1425C58.1388 39.5028 59.9545 41.8372 62.0424 43.9122C62.8465 44.7163 63.6376 45.5852 64.5973 46.2207C65.4662 46.7913 67.1002 47.1025 67.3985 45.7149C67.8265 43.7696 67.2818 41.6297 67.0224 39.7103C66.387 35.3918 65.7645 30.71 63.482 26.8972C62.6909 25.5614 61.6145 24.4721 60.0841 23.7718C57.2181 22.4489 53.7943 24.1219 53.0421 27.2085ZM78.1885 18.5324L77.968 18.8825C76.0616 22.0599 77.0343 26.145 77.6698 29.5428C78.7202 35.2361 80.069 40.8386 81.9884 46.2985C82.2866 47.1414 82.6238 48.6588 83.6095 48.97C85.1138 49.4239 85.3602 47.2582 85.6326 46.3503C86.8905 42.1485 87.1499 37.6094 87.7724 33.2778C88.3171 29.5428 88.6932 25.743 88.0577 21.9821C87.7984 20.4647 87.1759 19.0382 85.9957 17.845C83.804 15.6014 80.0171 15.9257 78.1885 18.5324ZM33.4463 40.2032C34.2893 43.8214 37.8298 46.065 40.657 48.0752C45.3646 51.4341 50.2279 54.5077 55.4154 57.0885C56.2065 57.4775 57.5163 58.3464 58.4371 57.8666C59.8377 57.1663 58.502 55.4285 58.074 54.5725C56.0638 50.6949 53.081 47.2582 50.5132 43.7177C48.2956 40.6571 45.9223 37.6613 42.8487 35.4177C41.6037 34.4969 40.1641 33.9133 38.4782 33.8744C35.3527 33.7966 32.8498 36.6627 33.3555 39.8141L33.4463 40.2032ZM58.5409 112.608C57.8665 111.194 56.1027 112.491 55.2468 112.919C51.3173 114.851 47.8157 117.769 44.2363 120.259C41.1368 122.412 38.0891 124.721 35.7807 127.742C34.847 128.974 34.2245 130.388 34.1466 132.087C34.004 135.212 36.8182 137.767 39.9696 137.326L40.3846 137.248C44.0029 136.47 46.3243 132.982 48.3863 130.193C51.849 125.551 55.0134 120.752 57.6979 115.616C58.1129 114.825 58.9948 113.528 58.5409 112.608ZM71.2373 120.596C68.423 123.942 66.374 128.015 64.0915 131.737C62.1073 134.953 60.2527 138.286 59.3449 141.982C58.9688 143.486 58.9688 145.03 59.5913 146.612C60.7066 149.543 64.312 150.736 67.0224 149.076L67.3726 148.842C70.3684 146.677 71.0946 142.54 71.8727 139.155C73.1696 133.513 74.1552 127.859 74.5702 122.075C74.6351 121.18 74.9204 119.65 74.1293 118.988C72.9362 117.99 71.8468 119.87 71.2373 120.596ZM16.9112 77.0863C14.499 79.0705 14.486 82.8704 16.9112 84.9064L17.2484 85.1658C20.2571 87.3316 24.3941 86.7091 27.8568 86.3849C33.6149 85.8402 39.2952 84.9713 44.9107 83.5447C45.7796 83.3113 47.3229 83.1038 47.712 82.1571C48.3085 80.7046 46.1557 80.2636 45.2738 79.9135C41.2146 78.2924 36.6885 77.6439 32.4477 76.6583C28.7776 75.7894 25.0166 75.0891 21.2298 75.3874C19.6995 75.5041 18.221 75.9969 16.9112 77.0863ZM97.8621 52.316C98.8737 52.4975 99.8593 51.2785 100.495 50.6689C104.645 46.6227 108.354 42.2263 111.829 37.5964C113.917 34.8211 116.602 31.6178 116.317 27.9088L116.278 27.4938C115.811 24.3424 112.556 22.3711 109.599 23.4086C108.004 23.9663 106.811 24.9519 105.903 26.1969C103.659 29.2835 102.31 32.8369 101.13 36.4293C99.7556 40.5663 97.9529 44.7552 97.2137 49.0738C97.0581 50.0075 96.3188 52.0566 97.8621 52.316ZM140.114 57.7758C136.379 58.4632 132.93 60.1232 129.597 61.9128C125.758 63.9749 121.569 65.7646 118.054 68.3713C117.302 68.9419 115.344 69.9146 116.278 71.1725C116.913 71.9896 118.456 71.795 119.338 71.795C125.135 71.7302 130.855 71.0947 136.561 70.135C139.972 69.5514 144.135 69.0716 146.482 66.2055L146.741 65.8683C148.57 63.2616 147.571 59.5914 144.718 58.3075C143.175 57.5943 141.632 57.4905 140.114 57.7758ZM115.603 144.109C116.018 142.462 115.837 140.918 115.292 139.479C113.943 135.926 111.7 132.826 109.352 129.869C106.642 126.458 104.126 122.646 100.936 119.663C100.235 119.014 98.9256 117.263 97.8621 118.418C97.1618 119.17 97.6287 120.661 97.7973 121.543C98.8867 127.223 100.534 132.735 102.505 138.182C103.672 141.437 104.891 145.458 108.12 147.247L108.496 147.429C111.401 148.765 114.838 147.131 115.603 144.109ZM133.371 126.977C130.79 124.189 127.548 122.166 124.241 120.311C120.441 118.171 116.68 115.616 112.595 114.06C111.7 113.723 109.832 112.595 109.275 114.073C108.924 115.033 109.91 116.226 110.403 116.978C113.567 121.841 117.173 126.316 121.05 130.621C123.372 133.189 126.017 136.444 129.687 136.885L130.102 136.911C133.28 137.054 135.848 134.24 135.407 131.14C135.186 129.467 134.434 128.105 133.371 126.977ZM144.965 81.9236C141.23 81.2233 137.417 81.5346 133.682 82.0014C129.35 82.5461 124.798 82.7147 120.583 83.8949C119.663 84.1543 117.484 84.3747 117.925 85.8791C118.21 86.8647 119.714 87.2408 120.557 87.5521C125.978 89.5752 131.542 91.0277 137.222 92.1819C140.607 92.8822 144.679 93.9197 147.896 92.0911L148.246 91.8707C150.891 90.0939 151.28 86.3071 149.089 84.0764C147.896 82.8574 146.482 82.2219 144.965 81.9236Z" fill="#F79329"/>
<path id="Vector_3" d="M88.7841 78.5518C86.8907 78.5518 85.3604 80.095 85.3604 81.9755C85.3604 83.8689 86.8907 85.3993 88.7841 85.3993C90.6775 85.3993 92.2078 83.8689 92.2078 81.9755C92.2078 80.095 90.6775 78.5518 88.7841 78.5518Z" fill="#ED6C30"/>
<path id="Vector_4" d="M77.8383 95.3075C79.7292 95.3075 81.262 93.7746 81.262 91.8837C81.262 89.9928 79.7292 88.46 77.8383 88.46C75.9474 88.46 74.4146 89.9928 74.4146 91.8837C74.4146 93.7746 75.9474 95.3075 77.8383 95.3075Z" fill="#ED6C30"/>
<path id="Vector_5" d="M117.86 152.292C114.592 152.292 111.959 154.938 111.959 158.193C111.959 161.461 114.605 164.094 117.86 164.094C119.425 164.094 120.926 163.472 122.032 162.365C123.139 161.259 123.761 159.758 123.761 158.193C123.761 156.628 123.139 155.127 122.032 154.02C120.926 152.914 119.425 152.292 117.86 152.292Z" fill="#FCC21B"/>
<path id="Vector_6" d="M144.109 147.896C147.368 147.896 150.01 145.254 150.01 141.995C150.01 138.736 147.368 136.094 144.109 136.094C140.85 136.094 138.208 138.736 138.208 141.995C138.208 145.254 140.85 147.896 144.109 147.896Z" fill="#FCC21B"/>
<path id="Vector_7" d="M156.416 106.733C155.641 106.733 154.874 106.886 154.158 107.182C153.442 107.479 152.791 107.913 152.243 108.461C151.695 109.009 151.261 109.66 150.964 110.376C150.668 111.091 150.515 111.859 150.515 112.634C150.515 113.409 150.668 114.176 150.964 114.892C151.261 115.608 151.695 116.258 152.243 116.806C152.791 117.354 153.442 117.789 154.158 118.085C154.874 118.382 155.641 118.534 156.416 118.534C159.671 118.534 162.317 115.889 162.317 112.634C162.317 109.366 159.671 106.733 156.416 106.733Z" fill="#FCC21B"/>
<path id="Vector_8" d="M158.4 63.5599C161.659 63.5599 164.301 60.918 164.301 57.6591C164.301 54.4002 161.659 51.7583 158.4 51.7583C155.141 51.7583 152.5 54.4002 152.5 57.6591C152.5 60.918 155.141 63.5599 158.4 63.5599Z" fill="#FCC21B"/>
<path id="Vector_9" d="M120.726 18.0267C121.501 18.0284 122.269 17.8769 122.986 17.581C123.703 17.285 124.354 16.8505 124.902 16.3022C125.45 15.7539 125.885 15.1027 126.181 14.386C126.477 13.6693 126.628 12.9013 126.627 12.1259C126.627 8.87072 123.981 6.2251 120.726 6.2251C117.458 6.2251 114.825 8.87072 114.825 12.1259C114.825 15.394 117.471 18.0267 120.726 18.0267ZM50.2148 18.0526C53.4829 18.0526 56.1155 15.407 56.1155 12.1518C56.1155 8.88369 53.4699 6.25104 50.2148 6.25104C49.4394 6.24933 48.6713 6.40079 47.9546 6.69672C47.2379 6.99266 46.5867 7.42724 46.0385 7.97552C45.4902 8.5238 45.0556 9.17498 44.7597 9.89166C44.4637 10.6084 44.3123 11.3764 44.314 12.1518C44.314 15.407 46.9466 18.0526 50.2148 18.0526Z" fill="#FCC21B"/>
<path id="Vector_10" d="M11.3349 59.1117C14.5938 59.1117 17.2356 56.464 17.2356 53.1979C17.2356 49.9319 14.5938 47.2842 11.3349 47.2842C8.07595 47.2842 5.43408 49.9319 5.43408 53.1979C5.43408 56.464 8.07595 59.1117 11.3349 59.1117Z" fill="#FCC21B"/>
<path id="Vector_11" d="M11.516 110.494C10.74 110.494 9.97166 110.647 9.2549 110.944C8.53814 111.241 7.88706 111.677 7.33896 112.227C6.79085 112.776 6.35647 113.428 6.06069 114.145C5.76491 114.863 5.61354 115.631 5.61525 116.407C5.61525 119.663 8.26087 122.308 11.516 122.308C14.7712 122.308 17.4168 119.663 17.4168 116.407C17.4168 113.126 14.7842 110.494 11.516 110.494Z" fill="#FCC21B"/>
<path id="Vector_12" d="M59.0597 165.546C62.3258 165.546 64.9735 162.898 64.9735 159.632C64.9735 156.366 62.3258 153.719 59.0597 153.719C55.7937 153.719 53.146 156.366 53.146 159.632C53.146 162.898 55.7937 165.546 59.0597 165.546Z" fill="#FCC21B"/>
<path id="Vector_13" d="M160.255 83.5447C157.428 83.5447 155.145 85.8272 155.145 88.6414C155.145 91.4686 157.428 93.7641 160.255 93.7641C163.069 93.7641 165.351 91.4686 165.351 88.6414C165.364 85.8272 163.069 83.5447 160.255 83.5447Z" fill="#FCC21B"/>
<path id="Vector_14" d="M140.607 37.7909C143.422 37.7909 145.704 35.5032 145.704 32.6812C145.704 29.8592 143.422 27.5715 140.607 27.5715C137.792 27.5715 135.51 29.8592 135.51 32.6812C135.51 35.5032 137.792 37.7909 140.607 37.7909Z" fill="#FCC21B"/>
<path id="Vector_15" d="M81.6253 10.6732C84.4473 10.6732 86.735 8.38555 86.735 5.56355C86.735 2.74154 84.4473 0.453857 81.6253 0.453857C78.8033 0.453857 76.5156 2.74154 76.5156 5.56355C76.5156 8.38555 78.8033 10.6732 81.6253 10.6732Z" fill="#FCC21B"/>
<path id="Vector_16" d="M26.3006 33.1481C29.1226 33.1481 31.4103 30.8604 31.4103 28.0384C31.4103 25.2164 29.1226 22.9287 26.3006 22.9287C23.4786 22.9287 21.1909 25.2164 21.1909 28.0384C21.1909 30.8604 23.4786 33.1481 26.3006 33.1481Z" fill="#FCC21B"/>
<path id="Vector_17" d="M5.74494 86.6183C8.56694 86.6183 10.8546 84.3306 10.8546 81.5086C10.8546 78.6866 8.56694 76.3989 5.74494 76.3989C2.92294 76.3989 0.635254 78.6866 0.635254 81.5086C0.635254 84.3306 2.92294 86.6183 5.74494 86.6183Z" fill="#FCC21B"/>
<path id="Vector_18" d="M28.2977 148.842C31.1197 148.842 33.4074 146.555 33.4074 143.733C33.4074 140.911 31.1197 138.623 28.2977 138.623C25.4757 138.623 23.188 140.911 23.188 143.733C23.188 146.555 25.4757 148.842 28.2977 148.842Z" fill="#FCC21B"/>
<path id="Vector_19" d="M89.679 165.507C92.501 165.507 94.7887 163.22 94.7887 160.398C94.7887 157.576 92.501 155.288 89.679 155.288C86.857 155.288 84.5693 157.576 84.5693 160.398C84.5693 163.22 86.857 165.507 89.679 165.507Z" fill="#FCC21B"/>
</g>
<defs>
<clipPath id="clip0_0_75">
<rect width="166" height="166" fill="white"/>
</clipPath>
</defs>
</svg>
