<svg width="50" height="50" viewBox="0 0 50 50" fill="none" xmlns="http://www.w3.org/2000/svg">
<g id="ph:briefcase-metal-fill">
<path id="Vector" d="M5.46875 23.4375H44.5312C44.7384 23.4375 44.9372 23.5199 45.0837 23.6664C45.2302 23.8129 45.3125 24.0116 45.3125 24.2188V32.0313C45.3125 32.2385 45.2302 32.4372 45.0837 32.5837C44.9372 32.7302 44.7384 32.8125 44.5312 32.8125H5.46875C5.26155 32.8125 5.06284 32.7302 4.91632 32.5837C4.76981 32.4372 4.6875 32.2385 4.6875 32.0313V24.2188C4.6875 24.0116 4.76981 23.8129 4.91632 23.6664C5.06284 23.5199 5.26155 23.4375 5.46875 23.4375ZM4.6875 40.625C4.6875 41.4538 5.01674 42.2487 5.60279 42.8348C6.18884 43.4208 6.9837 43.75 7.8125 43.75H42.1875C43.0163 43.75 43.8112 43.4208 44.3972 42.8348C44.9833 42.2487 45.3125 41.4538 45.3125 40.625V36.7188C45.3125 36.5116 45.2302 36.3129 45.0837 36.1664C44.9372 36.0199 44.7384 35.9375 44.5312 35.9375H5.46875C5.26155 35.9375 5.06284 36.0199 4.91632 36.1664C4.76981 36.3129 4.6875 36.5116 4.6875 36.7188V40.625ZM45.3125 15.625V19.5313C45.3125 19.7385 45.2302 19.9372 45.0837 20.0837C44.9372 20.2302 44.7384 20.3125 44.5312 20.3125H5.46875C5.26155 20.3125 5.06284 20.2302 4.91632 20.0837C4.76981 19.9372 4.6875 19.7385 4.6875 19.5313V15.625C4.6875 14.7962 5.01674 14.0014 5.60279 13.4153C6.18884 12.8293 6.9837 12.5 7.8125 12.5H15.625V10.9375C15.6224 10.3212 15.7419 9.71054 15.9766 9.14066C16.2112 8.57078 16.5564 8.05301 16.9922 7.61722C17.428 7.18143 17.9457 6.83625 18.5156 6.60159C19.0855 6.36694 19.6962 6.24746 20.3125 6.25004H29.6875C30.3038 6.24746 30.9145 6.36694 31.4844 6.60159C32.0543 6.83625 32.572 7.18143 33.0078 7.61722C33.4436 8.05301 33.7888 8.57078 34.0234 9.14066C34.2581 9.71054 34.3776 10.3212 34.375 10.9375V12.5H42.1875C43.0163 12.5 43.8112 12.8293 44.3972 13.4153C44.9833 14.0014 45.3125 14.7962 45.3125 15.625ZM31.25 10.9375C31.25 10.5231 31.0854 10.1257 30.7924 9.83269C30.4993 9.53966 30.1019 9.37504 29.6875 9.37504H20.3125C19.8981 9.37504 19.5007 9.53966 19.2076 9.83269C18.9146 10.1257 18.75 10.5231 18.75 10.9375V12.5H31.25V10.9375Z" fill="#664229"/>
</g>
</svg>
