<svg width="48" height="50" viewBox="0 0 48 50" fill="none" xmlns="http://www.w3.org/2000/svg">
<g id="radix-icons:line-height" clip-path="url(#clip0_0_1834)">
<path id="Vector" fill-rule="evenodd" clip-rule="evenodd" d="M12.7106 7.39012C12.4756 7.14077 12.1573 7.00073 11.8254 7.00073C11.4936 7.00073 11.1752 7.14077 10.9403 7.39012L4.6736 14.0568C4.44826 14.3087 4.32432 14.6442 4.32821 14.9919C4.33211 15.3396 4.46352 15.6719 4.69443 15.918C4.92535 16.1641 5.23749 16.3045 5.56431 16.3092C5.89114 16.314 6.20677 16.1827 6.44393 15.9434L10.5737 11.5534V38.4468L6.44706 34.0568C6.20991 33.8175 5.89427 33.6863 5.56745 33.691C5.24063 33.6958 4.92848 33.8362 4.69757 34.0822C4.46665 34.3283 4.33524 34.6606 4.33135 35.0083C4.32745 35.356 4.45139 35.6916 4.67673 35.9435L10.9434 42.6101C11.1784 42.8595 11.4967 42.9995 11.8286 42.9995C12.1604 42.9995 12.4788 42.8595 12.7137 42.6101L18.9804 35.9435C19.2057 35.6916 19.3297 35.356 19.3258 35.0083C19.3219 34.6606 19.1905 34.3283 18.9596 34.0822C18.7286 33.8362 18.4165 33.6958 18.0897 33.691C17.7629 33.6863 17.4472 33.8175 17.2101 34.0568L13.0803 38.4468V11.5534L17.2101 15.9434C17.4472 16.1827 17.7629 16.314 18.0897 16.3092C18.4165 16.3045 18.7286 16.1641 18.9596 15.918C19.1905 15.6719 19.3219 15.3396 19.3258 14.9919C19.3297 14.6442 19.2057 14.3087 18.9804 14.0568L12.7106 7.39012ZM27.4937 13.3334C27.0782 13.3334 26.6797 13.509 26.3859 13.8216C26.0921 14.1342 25.927 14.5581 25.927 15.0001C25.927 15.4421 26.0921 15.8661 26.3859 16.1786C26.6797 16.4912 27.0782 16.6668 27.4937 16.6668H46.2937C46.7092 16.6668 47.1077 16.4912 47.4015 16.1786C47.6953 15.8661 47.8603 15.4421 47.8603 15.0001C47.8603 14.5581 47.6953 14.1342 47.4015 13.8216C47.1077 13.509 46.7092 13.3334 46.2937 13.3334H27.4937ZM25.927 25.0001C25.927 24.5581 26.0921 24.1342 26.3859 23.8216C26.6797 23.509 27.0782 23.3334 27.4937 23.3334H46.2937C46.7092 23.3334 47.1077 23.509 47.4015 23.8216C47.6953 24.1342 47.8603 24.5581 47.8603 25.0001C47.8603 25.4421 47.6953 25.8661 47.4015 26.1786C47.1077 26.4912 46.7092 26.6668 46.2937 26.6668H27.4937C27.0782 26.6668 26.6797 26.4912 26.3859 26.1786C26.0921 25.8661 25.927 25.4421 25.927 25.0001ZM27.4937 33.3334C27.0782 33.3334 26.6797 33.509 26.3859 33.8216C26.0921 34.1342 25.927 34.5581 25.927 35.0001C25.927 35.4421 26.0921 35.8661 26.3859 36.1786C26.6797 36.4912 27.0782 36.6668 27.4937 36.6668H46.2937C46.7092 36.6668 47.1077 36.4912 47.4015 36.1786C47.6953 35.8661 47.8603 35.4421 47.8603 35.0001C47.8603 34.5581 47.6953 34.1342 47.4015 33.8216C47.1077 33.509 46.7092 33.3334 46.2937 33.3334H27.4937Z" fill="#664229"/>
</g>
<defs>
<clipPath id="clip0_0_1834">
<rect width="47" height="50" fill="white" transform="translate(0.860352)"/>
</clipPath>
</defs>
</svg>
