<svg width="50" height="50" viewBox="0 0 50 50" fill="none" xmlns="http://www.w3.org/2000/svg">
<g id="uil:book-open">
<path id="Vector" d="M44.1041 4.29159C42.6107 4.03437 41.0985 3.90197 39.5832 3.89576C34.4131 3.89152 29.3509 5.37404 24.9999 8.16659C20.6377 5.4107 15.5762 3.96458 10.4166 3.99993C8.90124 4.00614 7.38907 4.13854 5.89572 4.39576C5.40657 4.48009 4.9636 4.7363 4.64659 5.11825C4.32957 5.50019 4.15934 5.98278 4.16656 6.47909V31.4791C4.1621 31.7852 4.22515 32.0885 4.35125 32.3675C4.47734 32.6465 4.66336 32.8942 4.89609 33.0931C5.12881 33.2921 5.40251 33.4372 5.69772 33.5183C5.99292 33.5995 6.30237 33.6145 6.60406 33.5624C9.58951 33.0455 12.6482 33.1313 15.6 33.8147C18.5518 34.4981 21.337 35.7652 23.7916 37.5416L24.0416 37.6874H24.2707C24.5018 37.7837 24.7496 37.8333 24.9999 37.8333C25.2502 37.8333 25.498 37.7837 25.7291 37.6874H25.9582L26.2082 37.5416C28.6456 35.7255 31.4228 34.4173 34.3752 33.6944C37.3276 32.9715 40.395 32.8487 43.3957 33.3333C43.6974 33.3853 44.0069 33.3703 44.3021 33.2892C44.5973 33.2081 44.871 33.0629 45.1037 32.864C45.3364 32.6651 45.5224 32.4173 45.6485 32.1383C45.7746 31.8594 45.8377 31.556 45.8332 31.2499V6.24993C45.8115 5.77525 45.6282 5.32224 45.3137 4.96605C44.9992 4.60985 44.5724 4.37188 44.1041 4.29159ZM22.9166 31.9791C19.0621 29.9514 14.7718 28.8931 10.4166 28.8958H8.33322V8.06243C9.02709 8.02244 9.72269 8.02244 10.4166 8.06243C14.8611 8.05752 19.2087 9.36178 22.9166 11.8124V31.9791ZM41.6666 28.9791H39.5832C35.228 28.9764 30.9376 30.0347 27.0832 32.0624V11.8124C30.7911 9.36178 35.1387 8.05752 39.5832 8.06243C40.2771 8.02244 40.9727 8.02244 41.6666 8.06243V28.9791ZM44.1041 37.6249C42.6107 37.3677 41.0985 37.2353 39.5832 37.2291C34.4131 37.2249 29.3509 38.7074 24.9999 41.4999C20.6489 38.7074 15.5866 37.2249 10.4166 37.2291C8.90124 37.2353 7.38907 37.3677 5.89572 37.6249C5.62453 37.668 5.36452 37.7642 5.13065 37.9081C4.89677 38.0519 4.69364 38.2406 4.53295 38.4633C4.37225 38.6859 4.25715 38.9382 4.19427 39.2054C4.1314 39.4727 4.12198 39.7498 4.16656 40.0208C4.27243 40.5618 4.58841 41.0388 5.04529 41.3473C5.50216 41.6557 6.06268 41.7706 6.60406 41.6666C9.58951 41.1497 12.6482 41.2355 15.6 41.9188C18.5518 42.6022 21.337 43.8694 23.7916 45.6458C24.1444 45.897 24.5668 46.032 24.9999 46.032C25.433 46.032 25.8554 45.897 26.2082 45.6458C28.6628 43.8694 31.448 42.6022 34.3998 41.9188C37.3516 41.2355 40.4103 41.1497 43.3957 41.6666C43.9371 41.7706 44.4976 41.6557 44.9545 41.3473C45.4114 41.0388 45.7273 40.5618 45.8332 40.0208C45.8778 39.7498 45.8684 39.4727 45.8055 39.2054C45.7426 38.9382 45.6275 38.6859 45.4668 38.4633C45.3061 38.2406 45.103 38.0519 44.8691 37.9081C44.6353 37.7642 44.3752 37.668 44.1041 37.6249Z" fill="#664229"/>
</g>
</svg>
